<?xml version="1.0" standalone="no"?>
<!DOCTYPE svg PUBLIC "-//W3C//DTD SVG 20010904//EN"
 "http://www.w3.org/TR/2001/REC-SVG-20010904/DTD/svg10.dtd">
<svg version="1.0" xmlns="http://www.w3.org/2000/svg"
 width="700.000000pt" height="700.000000pt" viewBox="0 0 700.000000 700.000000"
 preserveAspectRatio="xMidYMid meet">
<metadata>
Created by potrace 1.14, written by Peter Selinger 2001-2017
</metadata>
<g transform="translate(0.000000,700.000000) scale(0.100000,-0.100000)"
fill="#000000" stroke="none">
<path d="M3423 6793 c4 -7 -16 -11 -54 -12 -34 -1 -65 -4 -70 -7 -5 -3 -9 1
-9 8 0 10 -2 10 -8 1 -5 -8 -13 -9 -22 -3 -8 6 -19 10 -25 10 -5 0 -3 -5 5
-10 11 -7 3 -10 -30 -11 -79 -3 -205 -19 -298 -39 -29 -7 -59 -9 -67 -6 -7 2
-15 0 -17 -6 -2 -6 -25 -11 -50 -12 -25 0 -44 -4 -41 -8 2 -5 -2 -8 -9 -9 -24
-1 -154 -38 -227 -63 -24 -9 -47 -13 -52 -10 -5 3 -9 1 -9 -5 0 -9 -56 -27
-72 -23 -5 1 -8 -3 -8 -8 0 -6 -7 -10 -15 -10 -8 0 -38 -11 -67 -24 -92 -42
-128 -55 -128 -48 0 4 -4 2 -8 -4 -12 -18 -94 -55 -109 -50 -8 3 -12 2 -9 -3
3 -5 -20 -22 -53 -39 -32 -16 -70 -37 -85 -47 -14 -9 -26 -14 -26 -11 0 4 -10
-2 -22 -14 -12 -11 -28 -20 -35 -20 -7 0 -13 -4 -13 -9 0 -5 -9 -13 -20 -16
-11 -3 -26 -12 -32 -18 -31 -30 -159 -108 -168 -102 -5 3 -8 0 -5 -7 3 -7 -11
-24 -32 -38 -20 -14 -57 -42 -82 -62 -24 -20 -49 -34 -55 -31 -6 3 -8 3 -4 -2
9 -10 -11 -37 -22 -30 -5 3 -11 -4 -15 -15 -3 -11 -11 -20 -16 -20 -13 0 -263
-251 -328 -330 -30 -36 -58 -64 -63 -62 -4 1 -7 -2 -6 -6 3 -9 -26 -53 -54
-84 -10 -10 -18 -21 -18 -24 0 -5 -50 -75 -61 -84 -3 -3 -18 -26 -33 -53 -16
-26 -33 -44 -38 -40 -6 3 -8 1 -4 -5 5 -8 -44 -102 -64 -122 -3 -3 -18 -31
-35 -62 -16 -31 -34 -54 -39 -51 -5 3 -6 1 -3 -5 10 -15 -3 -43 -16 -35 -6 3
-7 1 -3 -5 4 -6 -8 -40 -26 -74 -17 -35 -32 -65 -33 -68 -5 -30 -40 -98 -48
-93 -5 3 -8 2 -4 -3 4 -8 -21 -91 -46 -154 -4 -8 -17 -48 -30 -87 -13 -40 -26
-70 -29 -67 -3 2 -3 -7 -1 -21 3 -14 1 -25 -4 -25 -5 0 -9 -8 -9 -17 -1 -10
-15 -76 -32 -148 -17 -71 -34 -150 -37 -175 -3 -25 -8 -56 -10 -70 -4 -25 -12
-81 -17 -130 -2 -14 -7 -28 -13 -32 -6 -5 -6 -8 1 -8 7 0 9 -15 4 -44 -4 -24
-5 -53 -3 -65 1 -12 -2 -21 -8 -21 -8 0 -8 -4 0 -13 6 -8 8 -16 5 -19 -10 -11
-2 -447 9 -478 3 -8 8 -42 11 -75 4 -33 8 -71 11 -85 2 -14 6 -41 9 -60 3 -19
12 -68 21 -109 8 -41 13 -76 10 -79 -3 -3 -1 -10 4 -16 5 -6 17 -42 26 -81 9
-38 26 -98 37 -132 11 -34 16 -68 12 -74 -4 -7 -3 -9 3 -6 7 5 30 -47 48 -113
1 -3 7 -18 14 -35 7 -16 12 -31 12 -33 -1 -1 10 -25 24 -52 14 -28 23 -55 20
-60 -4 -6 -2 -10 2 -10 9 0 45 -74 43 -86 -1 -4 2 -10 7 -13 5 -3 25 -37 44
-76 19 -38 47 -89 62 -112 15 -24 27 -45 27 -48 0 -4 13 -26 30 -50 16 -24 30
-48 30 -54 0 -6 3 -11 8 -11 11 -1 57 -81 54 -94 -2 -6 0 -8 4 -4 9 10 64 -64
57 -76 -4 -5 -2 -6 3 -3 5 3 21 -11 34 -31 14 -20 31 -43 38 -50 7 -8 9 -18 6
-24 -4 -6 -2 -8 3 -5 6 4 24 -9 39 -30 37 -46 194 -212 258 -272 27 -25 71
-67 98 -92 26 -25 48 -43 48 -40 0 3 10 -4 23 -16 30 -30 84 -74 127 -103 19
-13 42 -32 51 -42 9 -10 18 -15 21 -13 8 8 108 -72 100 -80 -4 -5 -2 -5 5 -2
13 8 115 -52 108 -63 -3 -5 3 -7 12 -5 10 1 29 -6 43 -15 14 -10 76 -43 138
-75 62 -31 110 -60 107 -65 -3 -4 3 -6 13 -3 21 5 75 -21 64 -32 -4 -5 -2 -5
5 -1 10 5 50 -7 143 -47 14 -5 33 -12 43 -14 10 -1 31 -10 47 -18 17 -9 32
-15 35 -15 23 -1 64 -14 60 -20 -3 -4 1 -8 8 -7 44 1 68 -4 61 -15 -4 -7 -3
-8 4 -4 6 4 31 1 54 -5 24 -7 48 -14 53 -15 29 -8 213 -45 240 -49 11 -1 38
-5 60 -9 98 -15 165 -21 326 -30 31 -2 61 -6 66 -9 6 -4 13 -4 15 -1 8 8 256
9 264 1 4 -4 12 -3 18 2 6 5 52 12 101 16 50 4 106 10 125 12 19 3 52 5 72 6
21 1 38 5 38 10 0 4 10 7 23 7 13 0 65 10 117 22 52 12 109 22 127 22 17 1 29
4 26 9 -2 4 1 7 6 7 18 0 19 0 61 15 22 8 41 14 43 14 1 0 9 2 17 5 8 3 31 9
50 15 41 11 179 62 231 84 20 9 39 13 43 10 3 -4 6 -1 6 5 0 7 5 12 11 12 7 0
74 31 150 69 77 38 139 68 139 65 0 -3 9 4 21 15 12 11 35 25 53 32 17 7 33
15 36 18 19 21 91 62 100 56 6 -3 9 -1 8 5 -2 7 6 17 17 23 11 7 22 14 25 17
8 9 54 37 63 39 4 0 16 9 26 19 45 41 68 60 106 88 39 28 89 70 127 107 10 9
21 17 24 17 3 0 24 19 46 43 22 23 44 41 49 40 5 -2 8 0 7 5 -1 4 28 39 66 77
37 39 84 89 103 112 19 24 40 40 46 36 5 -3 7 -1 4 5 -4 5 8 28 25 49 18 22
48 58 67 81 18 23 37 39 42 36 5 -3 6 1 4 9 -3 7 6 26 20 43 14 16 25 34 25
41 0 6 3 13 8 15 4 2 21 24 38 50 17 26 35 44 39 40 5 -4 6 -2 2 3 -6 12 87
178 95 169 4 -3 5 1 5 8 -2 15 33 87 51 106 6 7 12 18 12 24 0 20 32 78 41 72
5 -3 6 2 3 11 -4 8 1 26 10 40 9 13 16 31 16 39 0 8 7 21 15 30 9 8 15 19 15
23 -1 7 3 23 16 58 16 48 36 103 41 115 3 8 7 21 9 29 1 8 6 17 11 20 4 3 9
15 10 26 2 24 5 37 21 90 33 105 40 133 41 168 1 10 5 16 9 13 4 -3 8 5 8 17
-1 58 16 137 27 131 9 -5 9 -4 0 6 -7 7 -8 22 -3 39 4 15 11 54 14 87 4 32 9
73 12 89 2 17 7 89 10 160 3 73 11 136 18 144 7 9 7 12 0 8 -7 -4 -11 31 -13
111 -1 64 -4 133 -5 152 -10 113 -19 196 -23 203 -2 4 2 7 9 7 9 0 9 3 2 8
-16 11 -24 52 -11 52 9 0 9 2 1 8 -10 6 -23 63 -30 132 -1 14 -3 25 -4 25 -1
0 -3 7 -5 15 -20 77 -25 103 -20 111 4 5 2 9 -3 9 -5 0 -12 12 -15 28 -3 15
-13 53 -22 85 -13 48 -14 62 -4 75 11 14 11 15 -1 4 -12 -10 -17 -4 -33 40
-10 29 -19 62 -20 73 -1 11 -7 26 -15 34 -7 8 -11 23 -8 33 2 11 2 17 -2 14
-8 -9 -53 105 -45 117 4 6 1 7 -7 2 -10 -6 -12 -3 -8 13 4 12 2 20 -2 17 -5
-3 -12 5 -16 17 -4 13 -5 23 -3 24 2 0 -4 9 -14 19 -10 9 -16 24 -13 32 3 8 2
11 -3 8 -9 -5 -27 32 -23 48 1 4 -2 7 -7 7 -9 0 -25 34 -26 55 0 6 -10 22 -23
35 -12 13 -22 29 -22 36 0 7 -6 19 -13 26 -11 11 -25 39 -29 58 -1 3 -8 11
-15 18 -7 8 -10 18 -7 24 4 7 2 8 -4 4 -7 -4 -12 -1 -12 8 0 9 -3 16 -7 16 -5
0 -21 21 -37 48 -16 26 -56 81 -87 123 -32 42 -55 80 -52 83 4 3 -1 6 -10 6
-10 0 -17 4 -17 9 0 9 -21 35 -134 165 -67 77 -76 86 -87 86 -5 0 -9 5 -9 11
0 6 -11 20 -25 31 -14 11 -22 24 -19 30 4 6 3 8 -2 5 -6 -3 -37 20 -70 51 -34
31 -73 66 -87 76 -14 11 -23 25 -20 30 4 6 3 8 -2 4 -11 -10 -76 42 -68 55 3
5 2 7 -4 4 -13 -8 -154 98 -145 109 4 4 2 4 -5 1 -6 -4 -18 0 -26 8 -9 8 -21
15 -27 15 -6 0 -13 7 -16 15 -4 8 -10 15 -14 15 -18 0 -149 88 -142 95 4 5 1
5 -5 1 -7 -4 -40 9 -73 28 -34 20 -66 36 -71 36 -6 0 -7 5 -4 10 4 6 2 9 -3 8
-16 -5 -181 76 -175 85 3 6 1 7 -5 3 -15 -9 -143 45 -135 57 3 6 1 7 -5 3 -7
-4 -60 9 -120 29 -59 20 -114 38 -122 40 -8 3 -40 11 -70 20 -74 22 -68 20
-135 34 -33 7 -67 15 -75 18 -8 3 -22 7 -30 9 -25 4 -93 14 -129 19 -19 2 -50
7 -70 10 -81 14 -221 25 -381 28 -69 2 -131 7 -139 11 -9 6 -12 5 -8 -1z"/>
</g>
</svg>
